<?xml version="1.0" encoding="UTF-8"?>
<svg id="Lag_2" data-name="Lag 2" xmlns="http://www.w3.org/2000/svg" viewBox="0 0 659.13 188.01">
  <defs>
    <style>
      .cls-1 {
        fill: #bd1805;
      }

      .cls-1, .cls-2, .cls-3 {
        stroke-width: 0px;
      }

      .cls-2 {
        fill: #fff;
      }

      .cls-3 {
        fill: #b98848;
      }
    </style>
  </defs>
  <g id="Lag_1-2" data-name="Lag 1">
    <path class="cls-1" d="m648,101c0,13.89-11.15,25.2-25,25.46v.54H179v-.54c-13.85-.26-25-11.57-25-25.46s11.15-25.2,25-25.46v-.54h444v.54c13.85.26,25,11.57,25,25.46Z"/>
    <g>
      <path class="cls-3" d="m633,67.72v-.72H169v.72c-14.47.34-26.13,15.35-26.13,33.78s11.65,33.44,26.13,33.78v.72h464v-.72c14.47-.34,26.13-15.35,26.13-33.78s-11.65-33.44-26.13-33.78Zm-10,58.74v.54H179v-.54c-13.85-.26-25-11.57-25-25.46s11.15-25.2,25-25.46v-.54h444v.54c13.85.26,25,11.57,25,25.46s-11.15,25.2-25,25.46Z"/>
      <g>
        <g>
          <rect class="cls-3" x="42.83" y="42.41" width="120.62" height="120.62" transform="translate(102.84 -42.84) rotate(45)"/>
          <circle class="cls-3" cx="60.5" cy="60.5" r="60.5"/>
          <circle class="cls-3" cx="145.5" cy="60.5" r="60.5"/>
        </g>
        <g>
          <rect class="cls-1" x="51.65" y="50.18" width="103.44" height="103.44" transform="translate(102.34 -43.25) rotate(45)"/>
          <circle class="cls-1" cx="66.5" cy="65.5" r="51.5"/>
          <circle class="cls-1" cx="139.5" cy="65.5" r="51.5"/>
        </g>
      </g>
      <ellipse class="cls-2" cx="41" cy="39" rx="18" ry="7" transform="translate(-15.47 42.64) rotate(-47.26)"/>
    </g>
  </g>
</svg>