<?xml version="1.0" encoding="UTF-8"?>
<svg id="Lag_2" data-name="Lag 2" xmlns="http://www.w3.org/2000/svg" viewBox="0 0 638.13 156">
  <defs>
    <style>
      .cls-1 {
        fill: #4e5b93;
      }

      .cls-1, .cls-2 {
        stroke-width: 0px;
      }

      .cls-2 {
        fill: #b98848;
      }
    </style>
  </defs>
  <g id="Lag_1-2" data-name="Lag 1">
    <path class="cls-1" d="m627,93c0,13.89-11.15,25.2-25,25.46v.54H158v-.54c-13.85-.26-25-11.57-25-25.46s11.15-25.2,25-25.46v-.54h444v.54c13.85.26,25,11.57,25,25.46Z"/>
    <g>
      <path class="cls-2" d="m612,59.72v-.72H148v.72c-14.47.34-26.13,15.35-26.13,33.78s11.65,33.44,26.13,33.78v.72h464v-.72c14.47-.34,26.13-15.35,26.13-33.78s-11.65-33.44-26.13-33.78Zm-10,58.74v.54H158v-.54c-13.85-.26-25-11.57-25-25.46s11.15-25.2,25-25.46v-.54h444v.54c13.85.26,25,11.57,25,25.46s-11.15,25.2-25,25.46Z"/>
      <g>
        <circle class="cls-2" cx="78" cy="78" r="78"/>
        <polygon class="cls-1" points="78.17 6 103.71 52.71 150.42 78.25 103.71 103.8 78.17 150.51 52.62 103.8 5.91 78.25 52.62 52.71 78.17 6"/>
      </g>
    </g>
  </g>
</svg>