<?xml version="1.0" encoding="UTF-8"?>
<svg id="Lag_2" data-name="Lag 2" xmlns="http://www.w3.org/2000/svg" version="1.1" viewBox="0 0 1000 1000">
  <defs>
    <style>
      .cls-1 {
        fill: #9d6831;
      }

      .cls-1, .cls-2, .cls-3, .cls-4 {
        stroke-miterlimit: 10;
      }

      .cls-1, .cls-3, .cls-4 {
        stroke: #050606;
      }

      .cls-5 {
        fill: #d19c64;
      }

      .cls-5, .cls-6, .cls-7, .cls-8, .cls-9 {
        stroke-width: 0px;
      }

      .cls-6, .cls-2 {
        fill: none;
      }

      .cls-7 {
        fill: #b98848;
      }

      .cls-8 {
        fill: #050606;
      }

      .cls-2 {
        stroke: #bda780;
        stroke-width: .5px;
      }

      .cls-9 {
        fill: #9d6833;
      }

      .cls-3 {
        fill: #37351d;
      }

      .cls-4 {
        fill: #b78746;
      }
    </style>
  </defs>
  <g id="Lag_1-2" data-name="Lag 1-2">
    <g>
      <circle class="cls-7" cx="338.2" cy="360.3" r="317.1"/>
      <circle class="cls-5" cx="340.1" cy="362.2" r="234.7"/>
    </g>
  </g>
  <g>
    <g>
      <g>
        <path class="cls-9" d="M148.6,456.7c-2.5-22.8-4.4-46.3-3.8-69.1,0-20.9,1.3-41.9,3.8-62.8v-4.4l4.4,1.9c30.4,15.9,95.1,17.8,182,18.4h20.3c67.9,0,135.1-2.5,165.5-18.4l3.8-1.9v4.4c4.4,22.2,6.3,45,6.3,67.2s-1.9,43.8-5.7,65.3v3.2h-3.8c-60.9-8.9-124.3-13.3-187.7-13.3s-48.2,0-48.2,0c-54.5,0-102.8,1.3-133.2,13.3l-3.8,1.3v-5.1Z"/>
        <path class="cls-8" d="M522.8,324.8c3.2,19,5.7,41.2,5.7,67.2s-2.5,46.3-5.7,64.7c-54.5-7.6-118-13.3-188.4-13.3s-33,0-48.2,0c-58.4,0-104,1.3-134.5,13.3-2.5-20.3-4.4-43.8-3.8-69.1,0-22.8,1.9-43.8,3.8-62.8,31.7,16.5,97,18.4,183.9,18.4h20.3c79.3,0,137.6-3.2,166.8-19M146.7,315.2l-1.3,8.9c-2.5,20.9-3.8,42.5-3.8,63.4s1.3,46.9,3.8,69.8l1.3,8.2,7.6-3.2c30.4-12.1,78-12.7,131.9-12.7h48.2c63.4,0,126.9,4.4,187.7,13.3h6.3c0,.6,1.3-5.1,1.3-5.1,3.8-21.6,5.7-43.8,5.7-66s-1.9-45.7-5.7-67.9l-1.3-8.9-7.6,3.8c-30.4,15.9-96.4,17.8-164.3,17.8s-13.3,0-20.3,0c-86.9,0-151-1.9-180.8-17.8l-8.2-4.4h0l-.6.6Z"/>
      </g>
      <path class="cls-4" d="M166.3,390.7v-12.1c0-4.4,34.9-7,41.2-10.1s-42.5-2.5-42.5-3.8c-1.9-11.4-5.7-25.4-12.1-40s0,0,0,0c-1.3,10.8-2.5,21.6-3.2,33.6-.6,11.4-.6,21.6-.6,31.7s0,19,.6,28.5c.6,12.7,1.9,24.1,3.2,35.5,1.3,11.4.6,0,.6,0,5.7-12.7,14-35.5,14-64.1l-1.3.6Z"/>
      <path class="cls-4" d="M508.8,390.7c0,7.6.6,19.7,3.8,33,3.2,13.3-22.8,1.9-24.7,3.2s26.6,3.8,26.6,4.4c1.9,7,5.1,15.2,8.2,22.8s.6,0,.6,0c1.3-10.1,2.5-20.9,3.2-32.3.6-11.4,1.3-21.6,1.3-31.7s0-19-1.3-29.2c-.6-12.7-2.5-24.1-4.4-34.9s-.6,0-.6,0c-3.8,8.2-8.2,19.7-10.8,34.9-2.5,15.2-31.7,5.7-31.7,5.7,0,0,29.2,8.2,29.2,8.9v14.6l.6.6Z"/>
      <polyline class="cls-2" points="155.5 396.4 158.7 378 153 364.1 151.1 377.4 151.1 412.9 154.9 428.1 161.2 401.5 161.9 373 153 340.6"/>
      <polyline class="cls-2" points="520.2 381.2 517.7 399.6 522.8 412.9 524.7 400.2 524.7 364.7 520.9 349.5 515.2 376.1 512 404.7 522.8 437"/>
    </g>
    <g>
      <path class="cls-1" d="M240.5,330.5l62.2-69.1h0l10.8-81.8h.6l1.9,89.4h0l-35.5,53.3h0l40,18.4v.6l-50.7-2.5h0l-3.2,4.4h0l-10.8,53.3h0l26,5.1v.6l-30.4,14h0l-8.2,41.9h-45l29.2-86.9h0l-62.8-69.1s0-.6,0,0l17.1,8.9h0l12.1-21.6h.6l-5.7,28.5h0l45,29.8h0l6.3-18.4"/>
      <polygon class="cls-3" points="322.3 341.9 319.8 373 344.5 390.1 345.2 359 322.3 341.9"/>
      <path class="cls-3" d="M312.8,178.9l-29.2,1.9-14,26.6,31.1-3.2,13.3-24.1s0-1.3-.6-1.3h-.6Z"/>
    </g>
  </g>
  <g>
    <path class="cls-7" d="M517.6,677.4c-67,0-120.5-53.6-120.5-120.5s53.6-120.5,120.5-120.5h342.1c67,0,120.5,53.6,120.5,120.5s-53.6,120.5-120.5,120.5c0,0-342.1,0-342.1,0Z"/>
    <path class="cls-5" d="M856.4,643.9h-336.1c-47.5,0-87-39.5-87-87s39.5-87,87-87h336.1c48.2,0,87,39.5,87,87s-38.8,87-87,87Z"/>
    <path class="cls-6" d="M869.7,590.4h-361.5c-18.7,0-33.5-14.7-33.5-33.5s14.7-33.5,33.5-33.5h361.5c18.7,0,33.5,14.7,33.5,33.5s-14.7,33.5-33.5,33.5Z"/>
  </g>
</svg>