<?xml version="1.0" encoding="UTF-8"?>
<svg id="Lag_2" data-name="Lag 2" xmlns="http://www.w3.org/2000/svg" version="1.1" viewBox="0 0 1000 1000">
  <defs>
    <style>
      .cls-1 {
        fill: #d19c64;
      }

      .cls-1, .cls-2, .cls-3, .cls-4, .cls-5, .cls-6 {
        stroke-width: 0px;
      }

      .cls-2, .cls-7 {
        fill: none;
      }

      .cls-3 {
        fill: #b98848;
      }

      .cls-4 {
        fill: #060505;
      }

      .cls-5 {
        fill: #a7966a;
      }

      .cls-6 {
        fill: #e9c458;
      }

      .cls-7 {
        stroke: #ebe8e4;
        stroke-miterlimit: 10;
        stroke-width: 2px;
      }
    </style>
  </defs>
  <g id="Lag_1-2" data-name="Lag 1-2">
    <g>
      <circle class="cls-3" cx="346.4" cy="343.9" r="333"/>
      <circle class="cls-1" cx="348.4" cy="345.9" r="246.4"/>
    </g>
  </g>
  <g>
    <g>
      <g>
        <polygon class="cls-6" points="141.3 439.1 176.6 361.2 387 361.2 422.3 439.1 141.3 439.1"/>
        <path class="cls-4" d="M385,364.6l32,71.9H146.6l32-71.9h205.8M389,357.9h-214.4l-2,4-32,71.9-4,9.3h291l-4-9.3-32-71.9-2-4h-.7Z"/>
      </g>
      <polygon class="cls-5" points="148 432.5 411 432.5 399.7 397.9 399.7 397.9 417 435.8 146.6 435.8 148 432.5"/>
      <path class="cls-7" d="M179.3,382.5l4.7-10.7h55.9"/>
    </g>
    <g>
      <g>
        <polygon class="cls-6" points="333.1 224.7 415.7 201.4 550.2 363.2 512.2 440.5 333.1 224.7"/>
        <path class="cls-4" d="M414.3,205.4l131.9,158.5-34.6,70.6-173.1-207.8,75.9-21.3M417,197.4l-4,1.3-75.9,21.3-10,2.7,6.7,8,173.1,207.8,6.7,8,4.7-9.3,34.6-70.6,2-4-2.7-3.3-131.9-158.5-2.7-3.3h-.7Z"/>
      </g>
      <polygon class="cls-5" points="342.4 225.4 510.9 427.2 530.2 396.5 530.2 396.5 511.6 433.8 338.4 226 342.4 225.4"/>
      <path class="cls-7" d="M369.1,225.4l42.6-11.3,11.3,14"/>
    </g>
    <g>
      <g>
        <polygon class="cls-6" points="141.3 363.2 176.6 284.6 387 284.6 422.3 363.2 141.3 363.2"/>
        <path class="cls-4" d="M385,288l32,71.9H146.6l32-71.9h205.8M389,281.3h-214.4l-2,4-32,71.9-4,9.3h291l-4-9.3-32-71.9-2-4h-.7Z"/>
      </g>
      <polygon class="cls-5" points="148 356.6 411 355.9 399.7 321.3 399.7 321.3 417 359.9 146.6 359.9 148 356.6"/>
      <path class="cls-7" d="M179.3,306.6l4.7-10.7h55.9"/>
    </g>
  </g>
  <g>
    <path class="cls-3" d="M494.8,676.9c-70.3,0-126.5-56.2-126.5-126.5s56.2-126.5,126.5-126.5h359.2c70.3,0,126.5,56.2,126.5,126.5s-56.2,126.5-126.5,126.5c0,0-359.2,0-359.2,0Z"/>
    <path class="cls-1" d="M850.5,641.7h-352.9c-49.9,0-91.4-41.5-91.4-91.4s41.5-91.4,91.4-91.4h352.9c50.6,0,91.4,41.5,91.4,91.4s-40.8,91.4-91.4,91.4Z"/>
    <path class="cls-2" d="M864.5,585.5h-379.6c-19.7,0-35.1-15.5-35.1-35.1s15.5-35.1,35.1-35.1h379.6c19.7,0,35.1,15.5,35.1,35.1s-15.5,35.1-35.1,35.1Z"/>
  </g>
</svg>