<?xml version="1.0" encoding="UTF-8"?>
<svg id="Lag_2" data-name="Lag 2" xmlns="http://www.w3.org/2000/svg" version="1.1" viewBox="0 0 1000 1000">
  <defs>
    <style>
      .cls-1 {
        fill: #d19c64;
      }

      .cls-1, .cls-2, .cls-3, .cls-4 {
        stroke-width: 0px;
      }

      .cls-5 {
        fill: #9f9e9e;
        stroke: #1d1d1b;
        stroke-miterlimit: 10;
      }

      .cls-2 {
        fill: none;
      }

      .cls-3 {
        fill: #b98848;
      }

      .cls-4 {
        fill: #d7d7d7;
      }
    </style>
  </defs>
  <g id="Lag_1-2" data-name="Lag 1-2">
    <g>
      <circle class="cls-3" cx="350.4" cy="343.8" r="331.2"/>
      <circle class="cls-1" cx="352.4" cy="345.7" r="245.1"/>
    </g>
  </g>
  <g>
    <path class="cls-3" d="M498,675c-69.9,0-125.9-55.9-125.9-125.9s55.9-125.9,125.9-125.9h357.3c69.9,0,125.9,55.9,125.9,125.9s-55.9,125.9-125.9,125.9c0,0-357.3,0-357.3,0Z"/>
    <path class="cls-1" d="M851.9,640h-351c-49.7,0-90.9-41.3-90.9-90.9s41.3-90.9,90.9-90.9h351c50.3,0,90.9,41.3,90.9,90.9s-40.6,90.9-90.9,90.9Z"/>
    <path class="cls-2" d="M865.9,584.1h-377.6c-19.6,0-35-15.4-35-35s15.4-35,35-35h377.6c19.6,0,35,15.4,35,35s-15.4,35-35,35Z"/>
  </g>
  <g>
    <polygon class="cls-5" points="131.8 329.2 252.4 252.3 374.3 268.2 469 347.7 441.2 428.6 180.8 428.6 131.8 329.2"/>
    <polygon class="cls-4" points="369.6 277.5 254.4 265.6 145.7 331.8 259 282.8 369.6 277.5"/>
    <g>
      <polyline class="cls-5" points="527.3 428.6 388.2 428.6 348.4 385.5 373 315.9 501.5 298.7 569.1 345.1 527.3 428.6"/>
      <polygon class="cls-4" points="356.4 380.9 378.9 324.5 498.2 309.3 390.2 335.1 356.4 380.9"/>
    </g>
    <g>
      <polyline class="cls-5" points="369 428.6 279.5 428.6 253.7 398.1 289.5 345.7 371.6 347.7 400.8 386.8 369 428.6"/>
      <polygon class="cls-4" points="294.8 351 366.3 355.7 300.7 363 261.7 397.4 294.8 351"/>
    </g>
  </g>
</svg>